<?xml version="1.0" encoding="UTF-8"?>
<svg xmlns="http://www.w3.org/2000/svg" width="1024" height="1024" viewBox="0 0 1024 1024" role="img" aria-labelledby="title desc">
  <title id="title">Auralis</title>
  <desc id="desc">An aurora-gradient letter A crossed by an audio pulse on a midnight rounded square.</desc>
  <defs>
    <linearGradient id="midnight" x1="110" y1="80" x2="900" y2="960" gradientUnits="userSpaceOnUse">
      <stop offset="0" stop-color="#071426"/>
      <stop offset="0.52" stop-color="#17143A"/>
      <stop offset="1" stop-color="#270D35"/>
    </linearGradient>
    <linearGradient id="aurora" x1="238" y1="760" x2="795" y2="270" gradientUnits="userSpaceOnUse">
      <stop offset="0" stop-color="#22D3EE"/>
      <stop offset="0.5" stop-color="#8B5CF6"/>
      <stop offset="1" stop-color="#F472B6"/>
    </linearGradient>
    <linearGradient id="pulse" x1="306" y1="600" x2="718" y2="600" gradientUnits="userSpaceOnUse">
      <stop offset="0" stop-color="#CFFAFE"/>
      <stop offset="0.5" stop-color="#FFFFFF"/>
      <stop offset="1" stop-color="#FCE7F3"/>
    </linearGradient>
    <radialGradient id="halo" cx="0" cy="0" r="1" gradientTransform="translate(512 478) rotate(90) scale(420)" gradientUnits="userSpaceOnUse">
      <stop stop-color="#8B5CF6" stop-opacity="0.28"/>
      <stop offset="1" stop-color="#8B5CF6" stop-opacity="0"/>
    </radialGradient>
    <clipPath id="tile">
      <rect x="52" y="52" width="920" height="920" rx="218"/>
    </clipPath>
  </defs>
  <g clip-path="url(#tile)">
    <rect x="52" y="52" width="920" height="920" rx="218" fill="url(#midnight)"/>
    <circle cx="512" cy="478" r="420" fill="url(#halo)"/>
    <path d="M-20 806C172 676 283 830 451 734C625 635 745 711 1044 514" fill="none" stroke="#22D3EE" stroke-opacity="0.08" stroke-width="80"/>
    <path d="M-45 263C194 391 319 188 518 286C696 374 819 303 1069 167" fill="none" stroke="#F472B6" stroke-opacity="0.07" stroke-width="68"/>
  </g>
  <rect x="68" y="68" width="888" height="888" rx="202" fill="none" stroke="#FFFFFF" stroke-opacity="0.09" stroke-width="5"/>
  <path d="M247 752L467 307C485 270 539 270 557 307L777 752" fill="none" stroke="url(#aurora)" stroke-width="82" stroke-linecap="round" stroke-linejoin="round"/>
  <path d="M322 604H374L409 535L459 671L510 478L559 630L601 554L637 604H702" fill="none" stroke="url(#pulse)" stroke-width="42" stroke-linecap="round" stroke-linejoin="round"/>
  <circle cx="322" cy="604" r="21" fill="#CFFAFE"/>
  <circle cx="702" cy="604" r="21" fill="#FCE7F3"/>
</svg>
